Coordinates
version=1
nRows=14
nColumns=46
inDegrees=yes

Units are S.I. units (second, meters, Newtons, ...)
Angles are in degrees.

endheader
time	pelvis_tilt	pelvis_list	pelvis_rotation	pelvis_tx	pelvis_ty	pelvis_tz	bb_angle	bb_tx	bb_ty	bb_tz	hip_flexion_r	hip_adduction_r	hip_rotation_r	knee_angle_r	knee_angle_r_beta	ankle_angle_r	subtalar_angle_r	mtp_angle_r	crank_angle_r	hip_flexion_l	hip_adduction_l	hip_rotation_l	knee_angle_l	knee_angle_l_beta	ankle_angle_l	subtalar_angle_l	mtp_angle_l	crank_angle_l	lumbar_extension	lumbar_bending	lumbar_rotation	arm_flex_r	arm_add_r	arm_rot_r	elbow_flex_r	pro_sup_r	wrist_flex_r	wrist_dev_r	arm_flex_l	arm_add_l	arm_rot_l	elbow_flex_l	pro_sup_l	wrist_flex_l	wrist_dev_l
      7.50500000	     -6.83323898	      0.16096982	     -0.91199629	      0.13911856	      1.15065436	     -0.28757974	      0.00000000	      0.50000000	      0.00000000	      0.25000000	     80.11605025	     -8.51895683	      2.19318810	     99.91899233	      1.74391540	     12.15216118	     -0.89886669	      0.00000000	      0.00000000	     39.26899004	     -5.21558008	     -1.00209326	     57.67395422	      1.00660039	    -15.34633968	     -8.41480769	      0.00000000	      0.00000000	    -71.15110235	      6.39986429	      2.94846227	     86.17695450	    -24.39392046	     36.20095953	     79.75727612	     47.69194972	      0.00000000	      0.00000000	     72.98924199	    -21.90711439	     25.52739387	     73.28693846	     50.63793179	      0.00000000	      0.00000000
      7.51000000	     -6.85235586	      0.50504245	     -0.87463469	      0.13933150	      1.15028073	     -0.28691243	      0.00000000	      0.50000000	      0.00000000	      0.25000000	     78.74041354	     -8.40507288	      2.34720269	     97.69972079	      1.70518181	     14.07923519	     -0.86049324	      0.00000000	      0.00000000	     40.38871311	     -4.81040684	     -0.64735572	     60.10312648	      1.04899745	    -16.00362326	     -8.92130179	      0.00000000	      0.00000000	    -71.16081862	      6.36853468	      1.85787426	     85.93579974	    -23.38617716	     35.95642754	     79.66724492	     47.52088406	      0.00000000	      0.00000000	     72.07525274	    -22.99936178	     24.39482548	     74.99604530	     50.88432326	      0.00000000	      0.00000000
      7.51500000	     -6.74154347	      0.79069085	     -0.98582779	      0.13966642	      1.15008063	     -0.28620277	      0.00000000	      0.50000000	      0.00000000	      0.25000000	     77.06839924	     -8.17329241	      2.42058996	     95.26590726	      1.66270375	     15.80094220	     -0.79702828	      0.00000000	      0.00000000	     41.32655798	     -4.57366702	     -0.48548397	     62.53176942	      1.09138526	    -16.48898158	     -9.55062702	      0.00000000	      0.00000000	    -71.23619313	      6.09364070	      1.45553339	     85.57174402	    -23.36897130	     35.88786569	     79.89367046	     47.54486727	      0.00000000	      0.00000000	     71.99536502	    -23.14892107	     24.24301112	     75.10050974	     50.89336643	      0.00000000	      0.00000000
      7.52000000	     -6.61932373	      1.29630875	     -1.01994003	      0.14014691	      1.14966638	     -0.28556842	      0.00000000	      0.50000000	      0.00000000	      0.25000000	     75.41252998	     -8.13761078	      2.65235515	     92.79802754	      1.61963112	     17.26257321	     -1.01037647	      0.00000000	      0.00000000	     42.19670925	     -4.09386566	     -0.45094885	     64.87447949	      1.13227327	    -16.67537113	     -9.92977784	      0.00000000	      0.00000000	    -71.22926843	      5.74946251	      0.84364317	     85.19526686	    -23.46329013	     35.83792438	     80.02431455	     47.56302531	      0.00000000	      0.00000000	     71.85516207	    -23.14221663	     24.20218908	     75.19723742	     50.90904292	      0.00000000	      0.00000000
      7.52500000	     -6.62301379	      1.27247034	     -1.07575804	      0.14061115	      1.14877080	     -0.28489112	      0.00000000	      0.50000000	      0.00000000	      0.25000000	     73.67009579	     -7.86807902	      2.35757395	     90.18144098	      1.57396307	     18.85216035	     -0.81538795	      0.00000000	      0.00000000	     43.33449541	     -4.12595481	     -0.15744823	     67.44994063	      1.17722354	    -16.61520294	    -10.45031201	      0.00000000	      0.00000000	    -71.23866360	      5.75310135	      0.56753849	     84.41925259	    -22.95919495	     35.00256564	     80.74288173	     47.57803886	      0.00000000	      0.00000000	     71.07167548	    -23.61703104	     23.39185456	     76.34350802	     51.04756689	      0.00000000	      0.00000000
      7.53000000	     -6.55663466	      1.93746954	     -1.12371543	      0.14132298	      1.14771539	     -0.28463373	      0.00000000	      0.50000000	      0.00000000	      0.25000000	     72.06146334	     -7.98138755	      2.70054231	     87.62743866	      1.52938732	     19.86052717	     -1.09642560	      0.00000000	      0.00000000	     44.19857372	     -3.46208628	     -0.26457841	     69.75659651	      1.21748228	    -16.57459447	    -10.75637740	      0.00000000	      0.00000000	    -71.08746441	      5.33232088	     -0.18769210	     84.06395686	    -23.14026925	     34.98266645	     80.81489062	     47.59183502	      0.00000000	      0.00000000	     70.83218773	    -23.53391720	     23.42811687	     76.35894317	     51.05831634	      0.00000000	      0.00000000
      7.53500000	     -6.63631801	      1.89451416	     -1.09499613	      0.14191468	      1.14613021	     -0.28395420	      0.00000000	      0.50000000	      0.00000000	      0.25000000	     70.40890732	     -7.82844566	      2.25856902	     85.02050053	      1.48388767	     21.00818485	     -1.36983659	      0.00000000	      0.00000000	     45.43179598	     -3.53171813	     -0.05114625	     72.36011266	      1.26292221	    -16.10466908	    -11.24403398	      0.00000000	      0.00000000	    -70.90355985	      5.34723210	     -0.40269751	     82.89529171	    -22.71497575	     34.14885220	     81.60804737	     47.64114374	      0.00000000	      0.00000000	     70.00338784	    -23.97085302	     22.72867493	     77.39442353	     51.18343780	      0.00000000	      0.00000000
      7.54000000	     -6.50089749	      2.47066749	     -1.04189690	      0.14230220	      1.14485507	     -0.28339806	      0.00000000	      0.50000000	      0.00000000	      0.25000000	     68.80756011	     -8.01851520	      2.47415157	     82.54743592	      1.44072455	     21.55858406	     -1.52437678	      0.00000000	      0.00000000	     46.27265880	     -2.97272322	     -0.16235964	     74.66042009	      1.30307015	    -15.67743095	    -11.71042166	      0.00000000	      0.00000000	    -70.82500959	      4.96923043	     -1.11243968	     82.42871660	    -22.85274920	     34.15196344	     81.69674890	     47.66147683	      0.00000000	      0.00000000	     69.80217598	    -23.90060120	     22.77279501	     77.43522606	     51.19878509	      0.00000000	      0.00000000
      7.54500000	     -6.33992501	      2.62977754	     -0.92132664	      0.14265158	      1.14327926	     -0.28316212	      0.00000000	      0.50000000	      0.00000000	      0.25000000	     67.16493814	     -8.07188352	      2.33689052	     80.14457430	      1.39878670	     21.89799704	     -1.65893291	      0.00000000	      0.00000000	     47.21352287	     -2.76426434	     -0.06045412	     77.12796028	      1.34613685	    -15.01522542	    -12.23836902	      0.00000000	      0.00000000	    -70.77067230	      5.00152341	     -1.36283210	     81.55029047	    -22.77679133	     33.93672505	     82.16813957	     47.72731767	      0.00000000	      0.00000000	     69.38058057	    -24.11270270	     22.67004321	     77.72668466	     51.24648456	      0.00000000	      0.00000000
      7.55000000	     -6.51658275	      2.84086598	     -0.78724474	      0.14317235	      1.14121982	     -0.28283486	      0.00000000	      0.50000000	      0.00000000	      0.25000000	     65.96641053	     -8.14555726	      2.25077327	     77.83238593	      1.35843140	     21.78020374	     -2.01054306	      0.00000000	      0.00000000	     48.49977744	     -2.52960282	      0.04969648	     79.53191554	      1.38809379	    -14.16579950	    -12.32040376	      0.00000000	      0.00000000	    -70.48616900	      4.90708187	     -1.66370627	     80.52360616	    -22.79002222	     33.04975456	     83.23055420	     47.82484712	      0.00000000	      0.00000000	     68.70592952	    -24.23098437	     22.33967903	     78.80703948	     51.40901649	      0.00000000	      0.00000000
      7.55500000	     -6.37031184	      3.36881355	     -0.75289148	      0.14345406	      1.13987878	     -0.28241161	      0.00000000	      0.50000000	      0.00000000	      0.25000000	     64.51538784	     -8.38256040	      2.51130434	     75.60920423	      1.31962956	     21.62531134	     -1.93209811	      0.00000000	      0.00000000	     49.32497557	     -2.06966635	     -0.13897678	     81.67898641	      1.42556724	    -13.51683394	    -12.78927435	      0.00000000	      0.00000000	    -70.43464873	      4.55274722	     -2.25657692	     80.12645206	    -22.93198747	     33.05561614	     83.31567787	     47.84451538	      0.00000000	      0.00000000	     68.54997812	    -24.12096417	     22.40857105	     78.86040163	     51.42771031	      0.00000000	      0.00000000
      7.56000000	     -6.44657364	      3.22539573	     -0.72103899	      0.14370298	      1.13805240	     -0.28197944	      0.00000000	      0.50000000	      0.00000000	      0.25000000	     63.16814869	     -8.20041629	      2.15067045	     73.35114697	      1.28021902	     21.13983179	     -2.31924178	      0.00000000	      0.00000000	     50.53842707	     -2.22027149	      0.13794577	     84.05371238	      1.46701403	    -12.25320757	    -12.74743105	      0.00000000	      0.00000000	    -70.27569794	      4.55352229	     -1.98917154	     79.04120677	    -23.14043717	     32.44575755	     84.40117841	     47.97352749	      0.00000000	      0.00000000	     68.02063148	    -24.11925189	     22.11823702	     79.76917839	     51.56121967	      0.00000000	      0.00000000
      7.56500000	     -6.45204614	      3.62348234	     -0.67550081	      0.14398506	      1.13697465	     -0.28186225	      0.00000000	      0.50000000	      0.00000000	      0.25000000	     61.87853363	     -8.48039570	      2.24479881	     71.20167914	      1.24270373	     20.60222127	     -1.99287859	      0.00000000	      0.00000000	     51.52215506	     -1.82995485	      0.01461136	     86.07362845	      1.50226822	    -11.47215691	    -13.23917342	      0.00000000	      0.00000000	    -70.16209842	      4.33186891	     -2.37159525	     78.57717272	    -23.27065132	     32.46697704	     84.53175489	     48.00254634	      0.00000000	      0.00000000	     67.91140633	    -24.04770056	     22.14572063	     79.85224275	     51.57996740	      0.00000000	      0.00000000
      7.57000000	     -6.52297888	      3.58459865	     -0.58458681	      0.14414446	      1.13558090	     -0.28186000	      0.00000000	      0.50000000	      0.00000000	      0.25000000	     60.59464676	     -8.52130566	      2.00680270	     69.10763020	      1.20615569	     19.92742019	     -1.70671002	      0.00000000	      0.00000000	     52.76682925	     -1.77102725	      0.28094993	     88.29454294	      1.54103049	    -10.56755957	    -13.34680760	      0.00000000	      0.00000000	    -70.02429093	      4.36861979	     -2.30016591	     77.98311536	    -23.42204381	     32.35177761	     85.02174304	     48.07865329	      0.00000000	      0.00000000	     67.58869487	    -24.02229259	     22.11311486	     80.18898232	     51.63806838	      0.00000000	      0.00000000
